<svg width="585" height="200" viewBox="0 0 585 200" fill="none" xmlns="http://www.w3.org/2000/svg">
<path d="M233.89 139.2C225.957 139.2 220.124 136.933 216.39 132.4C212.657 127.8 210.79 121.333 210.79 113C210.79 106.4 211.524 100.3 212.99 94.7C214.457 89.0333 216.557 84.1667 219.29 80.1C222.024 75.9667 225.39 72.7667 229.39 70.5C233.39 68.1667 237.89 67 242.89 67C246.557 67 249.69 67.5 252.29 68.5C254.957 69.4333 257.157 70.7667 258.89 72.5C260.69 74.2333 262.057 76.2667 262.99 78.6C263.924 80.9333 264.49 83.4333 264.69 86.1L252.49 88.9C252.29 87.3 251.99 85.8 251.59 84.4C251.257 83 250.69 81.8 249.89 80.8C249.157 79.8 248.157 79.0333 246.89 78.5C245.624 77.9 244.057 77.6 242.19 77.6C237.657 77.6 234.124 79.3667 231.59 82.9C229.124 86.3667 227.357 91.1667 226.29 97.3L224.49 107.8C224.224 109.2 224.024 110.533 223.89 111.8C223.757 113.067 223.69 114.467 223.69 116C223.69 119.867 224.557 122.933 226.29 125.2C228.024 127.467 230.89 128.6 234.89 128.6C238.357 128.6 241.157 127.467 243.29 125.2C245.49 122.933 247.457 119.933 249.19 116.2L260.09 119.8C258.757 122.933 257.257 125.7 255.59 128.1C253.924 130.5 252.024 132.533 249.89 134.2C247.824 135.867 245.457 137.133 242.79 138C240.124 138.8 237.157 139.2 233.89 139.2ZM288.951 138L300.551 68.2H344.651L342.851 78.9H311.551L308.551 97.3H338.551L336.751 108H306.751L303.551 127.3H334.851L333.051 138H288.951ZM381.612 138H368.812L380.412 68.2H405.612C411.745 68.2 416.345 69.8333 419.412 73.1C422.479 76.3667 424.012 80.7 424.012 86.1C424.012 92.5667 422.445 97.8333 419.312 101.9C416.179 105.967 411.779 108.567 406.112 109.7L416.512 138H402.912L394.012 110.8H386.112L381.612 138ZM398.512 100.6C402.045 100.6 404.679 99.9333 406.412 98.6C408.212 97.2667 409.379 95.1 409.912 92.1L410.412 89.1C410.545 88.6333 410.612 88.1 410.612 87.5C410.679 86.8333 410.712 86.2333 410.712 85.7C410.712 83.3667 409.979 81.6333 408.512 80.5C407.112 79.3 405.045 78.7 402.312 78.7H391.512L387.812 100.6H398.512ZM486.773 78.9L476.973 138H464.173L473.973 78.9H452.873L454.673 68.2H509.773L507.973 78.9H486.773ZM552.134 139.2C544.201 139.2 538.401 136.967 534.734 132.5C531.067 127.967 529.234 121.7 529.234 113.7C529.234 108.233 529.767 102.733 530.834 97.2C531.967 91.6 533.734 86.5667 536.134 82.1C538.601 77.6333 541.801 74 545.734 71.2C549.734 68.4 554.634 67 560.434 67C568.367 67 574.167 69.2667 577.834 73.8C581.501 78.2667 583.334 84.5 583.334 92.5C583.334 97.9667 582.767 103.5 581.634 109.1C580.567 114.633 578.801 119.633 576.334 124.1C573.934 128.567 570.734 132.2 566.734 135C562.801 137.8 557.934 139.2 552.134 139.2ZM552.334 128.6C556.867 128.6 560.301 126.9 562.634 123.5C565.034 120.033 566.734 115.2 567.734 109L569.734 97.3C570.134 94.6333 570.334 92.1 570.334 89.7C570.334 85.9 569.534 82.9333 567.934 80.8C566.334 78.6667 563.767 77.6 560.234 77.6C555.701 77.6 552.234 79.3333 549.834 82.8C547.501 86.2 545.834 91 544.834 97.2L542.834 108.9C542.434 111.633 542.234 114.167 542.234 116.5C542.234 120.3 543.034 123.267 544.634 125.4C546.234 127.533 548.801 128.6 552.334 128.6Z" fill="white"/>
<path d="M98.8256 37.5087L35.5725 87.176L63.2114 162.658L143.469 159.673L165.425 82.3471L98.8256 37.5087Z" stroke="white" stroke-width="9" stroke-miterlimit="10"/>
<path d="M104.295 184.62L101.36 105.703" stroke="white" stroke-width="9" stroke-miterlimit="10"/>
<path d="M177.333 127.374L101.36 105.703" stroke="white" stroke-width="9" stroke-miterlimit="10"/>
<path d="M145.389 40.1388L101.351 105.702" stroke="white" stroke-width="9" stroke-miterlimit="10"/>
<path d="M52.5713 43.5908L101.357 105.702" stroke="white" stroke-width="9" stroke-miterlimit="10"/>
<path d="M27.2056 132.955L101.359 105.701" stroke="white" stroke-width="9" stroke-miterlimit="10"/>
</svg>
