<svg width="1920" height="286" viewBox="0 0 1920 286" fill="none" xmlns="http://www.w3.org/2000/svg">
<path d="M-112.62 260.5H2043.3" stroke="#FAFAFA" stroke-miterlimit="10" stroke-linecap="round" stroke-dasharray="0.01 2"/>
<path d="M-112.62 130.75H2043.3" stroke="#FAFAFA" stroke-miterlimit="10" stroke-linecap="round" stroke-dasharray="0.01 2"/>
<path d="M-112.62 1H2043.3" stroke="#FAFAFA" stroke-miterlimit="10" stroke-linecap="round" stroke-dasharray="0.01 2"/>
<path d="M1777.57 16.5703V504.43" stroke="#FAFAFA" stroke-miterlimit="10" stroke-linecap="round" stroke-dasharray="0.01 2"/>
<path d="M1511.85 16.5703V504.43" stroke="#FAFAFA" stroke-miterlimit="10" stroke-linecap="round" stroke-dasharray="0.01 2"/>
<path d="M1246.12 16.5703V504.43" stroke="#FAFAFA" stroke-miterlimit="10" stroke-linecap="round" stroke-dasharray="0.01 2"/>
<path d="M980.393 16.5703V504.43" stroke="#FAFAFA" stroke-miterlimit="10" stroke-linecap="round" stroke-dasharray="0.01 2"/>
<path d="M715.183 16.5703V504.43" stroke="#FAFAFA" stroke-miterlimit="10" stroke-linecap="round" stroke-dasharray="0.01 2"/>
<path d="M449.456 16.5703V504.43" stroke="#FAFAFA" stroke-miterlimit="10" stroke-linecap="round" stroke-dasharray="0.01 2"/>
<path d="M183.729 16.5703V504.43" stroke="#FAFAFA" stroke-miterlimit="10" stroke-linecap="round" stroke-dasharray="0.01 2"/>
<path d="M1714.78 488.34C1490.05 488.34 1490.05 32.1399 1265.84 32.1399C1041.12 32.1399 1041.12 488.34 816.908 488.34C592.181 488.34 592.181 32.1399 367.973 32.1399C143.766 32.1399 142.728 488.34 -81.999 488.34" stroke="#FAFAFA" stroke-miterlimit="10"/>
<path d="M2043.3 488.34C1818.58 488.34 1818.58 32.1399 1594.37 32.1399C1369.64 32.1399 1369.64 488.34 1145.43 488.34C920.188 488.34 920.188 32.6589 695.462 32.6589C470.735 32.6589 470.735 488.859 246.527 488.859" stroke="#FAFAFA" stroke-miterlimit="10"/>
<path d="M1878.78 488.34C1654.05 488.34 1654.05 32.1399 1429.85 32.1399C1205.12 32.1399 1205.12 488.34 980.912 488.34C756.185 488.34 756.185 32.1399 531.977 32.1399C307.77 32.1399 306.732 488.34 82.0049 488.34" stroke="#FAFAFA" stroke-miterlimit="10"/>
</svg>
